<svg width="80" height="80" fill="none" xmlns="http://www.w3.org/2000/svg"><g clip-path="url(#a)"><rect width="80" height="80" rx="16" fill="#1B2C3B"/><path fill-rule="evenodd" clip-rule="evenodd" d="M47.029 13.118c-4.083 1.738-9.975 1.738-14.058 0-3.317-1.413-7.027-1.544-10.45-.064-7.225 3.123-10.465 12.25-7.321 20.484v.005l.981 2.12a105.404 105.404 0 0 1 7.454 22.404l1.557 7.344A4.772 4.772 0 0 0 29.819 69a4.77 4.77 0 0 0 4.712-4.01l2.195-13.63A3.315 3.315 0 0 1 40 48.573a3.315 3.315 0 0 1 3.275 2.785L45.47 64.99A4.77 4.77 0 0 0 50.182 69a4.772 4.772 0 0 0 4.625-3.589l1.558-7.344a105.404 105.404 0 0 1 7.454-22.403l.981-2.12v-.006c3.144-8.234-.096-17.36-7.32-20.484-3.424-1.48-7.134-1.349-10.451.064Z" fill="url(#b)"/><path d="M36.715 44.43A6.965 6.965 0 0 1 40 43.712a6.965 6.965 0 0 1 3.285.716c2.55 1.255 4.286 3.815 4.573 6.746l.975 9.939a.974.974 0 0 0 1.945-.095v-4.572c0-5.434.998-10.818 2.94-15.858l3.716-9.646c2.329-6.046-2.898-12.295-8.939-10.687l-4.54 1.208A16.223 16.223 0 0 1 40 22.01c-1.33-.018-2.657-.2-3.955-.545l-4.54-1.208c-6.04-1.608-11.268 4.642-8.939 10.686l3.716 9.647a44.142 44.142 0 0 1 2.94 15.858v4.571a.974.974 0 0 0 1.945.096l.975-9.939c.287-2.931 2.023-5.49 4.573-6.746Z" fill="url(#c)"/><path d="M80 31s-17.909 6.928-40 6.928S0 31 0 31v37h80V31Z" fill="url(#d)"/></g><defs><linearGradient id="b" x1="40" y1="12" x2="40" y2="69" gradientUnits="userSpaceOnUse"><stop stop-color="#486982"/><stop offset="1" stop-color="#3A556A"/></linearGradient><linearGradient id="d" x1="40" y1="31" x2="40" y2="62.101" gradientUnits="userSpaceOnUse"><stop stop-color="#466780"/><stop offset="1" stop-color="#486881" stop-opacity="0"/></linearGradient><radialGradient id="c" cx="0" cy="0" r="1" gradientUnits="userSpaceOnUse" gradientTransform="matrix(-8.1217 -24.33814 20.79805 -6.94037 40 44.207)"><stop stop-color="#375168"/><stop offset="1" stop-color="#2C4255"/></radialGradient><clipPath id="a"><path fill="#fff" d="M0 0h80v80H0z"/></clipPath></defs></svg>