<svg width="80" height="80" fill="none" xmlns="http://www.w3.org/2000/svg"><path fill-rule="evenodd" clip-rule="evenodd" d="M48.312 6.372c-4.983 2.135-12.174 2.135-17.157 0-4.049-1.734-8.577-1.895-12.755-.077C9.582 10.13 5.627 21.339 9.465 31.45a.01.01 0 0 1 0 .007l1.197 2.604a129.995 129.995 0 0 1 9.098 27.513l1.9 9.019A5.83 5.83 0 0 0 27.307 75a5.834 5.834 0 0 0 5.751-4.924l2.68-16.74a4.054 4.054 0 0 1 3.997-3.421 4.054 4.054 0 0 1 3.996 3.421l2.68 16.74A5.834 5.834 0 0 0 52.16 75a5.83 5.83 0 0 0 5.645-4.407l1.9-9.02a130.001 130.001 0 0 1 9.099-27.512l1.197-2.604a.01.01 0 0 1 0-.007c3.838-10.111-.117-21.32-8.935-25.155-4.178-1.818-8.706-1.657-12.755.077Z" fill="url(#a)"/><mask id="b" style="mask-type:alpha" maskUnits="userSpaceOnUse" x="0" y="19" width="80" height="42"><rect y="19" width="80" height="42" rx="12" fill="#1B2C3B"/></mask><g mask="url(#b)"><rect y="19" width="80" height="42" rx="12" fill="#1B2C3B"/><path fill-rule="evenodd" clip-rule="evenodd" d="M48.65 6.372c-5.024 2.135-12.276 2.135-17.3 0-4.083-1.734-8.65-1.895-12.863-.077-8.892 3.835-12.88 15.044-9.01 25.155a.01.01 0 0 1 0 .007l1.208 2.604a129.241 129.241 0 0 1 9.174 27.513l1.916 9.019A5.87 5.87 0 0 0 27.468 75a5.868 5.868 0 0 0 5.8-4.924l2.702-16.74A4.078 4.078 0 0 1 40 49.915a4.078 4.078 0 0 1 4.03 3.421l2.702 16.74a5.868 5.868 0 0 0 5.8 4.924 5.87 5.87 0 0 0 5.693-4.407l1.916-9.02a129.241 129.241 0 0 1 9.174-27.512l1.208-2.604a.01.01 0 0 1 0-.007c3.87-10.111-.118-21.32-9.01-25.155-4.213-1.818-8.78-1.657-12.862.077Z" fill="url(#c)"/><path d="M35.985 44.828A8.29 8.29 0 0 1 40 43.922a8.29 8.29 0 0 1 4.015.904c3.117 1.584 5.238 4.814 5.59 8.513l1.19 12.542c.05.516.407.95.895 1.079.757.2 1.483-.395 1.483-1.2v-5.768c0-6.858 1.22-13.651 3.593-20.012l4.542-12.173c2.847-7.628-3.542-15.513-10.925-13.485l-5.549 1.525c-1.587.436-3.21.665-4.834.688a19.241 19.241 0 0 1-4.834-.688l-5.549-1.525c-7.383-2.028-13.772 5.857-10.925 13.485l4.542 12.173a57.304 57.304 0 0 1 3.593 20.012v5.768c0 .805.726 1.4 1.483 1.2a1.23 1.23 0 0 0 .894-1.08l1.192-12.541c.351-3.7 2.472-6.93 5.589-8.513Z" fill="url(#d)"/><path fill-rule="evenodd" clip-rule="evenodd" d="M4 31a8 8 0 0 1 8-8h3v2h-3a6 6 0 0 0-6 6v3H4v-3Zm0 18a8 8 0 0 0 8 8h3v-2h-3a6 6 0 0 1-6-6v-3H4v3Zm72-18a8 8 0 0 0-8-8h-3v2h3a6 6 0 0 1 6 6v3h2v-3Zm0 18a8 8 0 0 1-8 8h-3v-2h3a6 6 0 0 0 6-6v-3h2v3Z" fill="#617587"/></g><defs><linearGradient id="a" x1="16.4" y1="5" x2="54.667" y2="72.2" gradientUnits="userSpaceOnUse"><stop stop-color="#fff"/><stop offset="1" stop-color="#fff"/></linearGradient><linearGradient id="c" x1="40" y1="5" x2="40" y2="75" gradientUnits="userSpaceOnUse"><stop stop-color="#486982"/><stop offset="1" stop-color="#3A556A"/></linearGradient><radialGradient id="d" cx="0" cy="0" r="1" gradientUnits="userSpaceOnUse" gradientTransform="rotate(-107.912 36.209 7.719) scale(32.2767 26.8813)"><stop stop-color="#375168"/><stop offset="1" stop-color="#2C4255"/></radialGradient></defs></svg>