<svg width="800" height="800" viewBox="0 0 48 48" xmlns="http://www.w3.org/2000/svg" fill="#a3c625" stroke="#a3c625"><g id="SVGRepo_tracerCarrier" stroke-linecap="round" stroke-linejoin="round" stroke="#CCC" stroke-width="1.44"><defs><style>.a{fill:none;stroke:#a3c625;stroke-linecap:round;stroke-linejoin:round}</style></defs><path class="a" d="M40.5 5.5h-33a2 2 0 0 0-2 2v33a2 2 0 0 0 2 2h33a2 2 0 0 0 2-2v-33a2 2 0 0 0-2-2Z"/><path class="a" d="M25.578 36.142c-.04-4.789 1.063-8.746 7.082-8.498 8.586-21.881-26.424-21.047-17.092-.13 2.83-.176 7.521 1.509 6.72 9.146M42.5 33.479l-37 5.824m0-28.263 12.345 2.29m14.51 2.2L42.5 17.011"/></g><g id="SVGRepo_iconCarrier"><path class="a" d="M40.5 5.5h-33a2 2 0 0 0-2 2v33a2 2 0 0 0 2 2h33a2 2 0 0 0 2-2v-33a2 2 0 0 0-2-2Z"/><path class="a" d="M25.578 36.142c-.04-4.789 1.063-8.746 7.082-8.498 8.586-21.881-26.424-21.047-17.092-.13 2.83-.176 7.521 1.509 6.72 9.146M42.5 33.479l-37 5.824m0-28.263 12.345 2.29m14.51 2.2L42.5 17.011"/></g></svg>