<svg width="80" height="80" fill="none" xmlns="http://www.w3.org/2000/svg"><path fill-rule="evenodd" clip-rule="evenodd" d="M48.312 6.372c-4.983 2.135-12.174 2.135-17.157 0-4.049-1.734-8.577-1.895-12.755-.077C9.582 10.13 5.627 21.339 9.465 31.45a.01.01 0 0 1 0 .007l1.197 2.604a129.995 129.995 0 0 1 9.098 27.513l1.9 9.019A5.83 5.83 0 0 0 27.307 75a5.834 5.834 0 0 0 5.751-4.924l2.68-16.74a4.054 4.054 0 0 1 3.997-3.421 4.054 4.054 0 0 1 3.996 3.421l2.68 16.74A5.834 5.834 0 0 0 52.16 75a5.83 5.83 0 0 0 5.645-4.407l1.9-9.02a129.995 129.995 0 0 1 9.099-27.512l1.197-2.604a.01.01 0 0 1 0-.007c3.838-10.111-.117-21.32-8.935-25.155-4.178-1.818-8.706-1.657-12.755.077Z" fill="url(#a)"/><mask id="c" style="mask-type:alpha" maskUnits="userSpaceOnUse" x="8" y="5" width="64" height="70"><path fill-rule="evenodd" clip-rule="evenodd" d="M48.312 6.372c-4.983 2.135-12.174 2.135-17.157 0-4.049-1.734-8.577-1.895-12.755-.077C9.582 10.13 5.627 21.339 9.465 31.45a.01.01 0 0 1 0 .007l1.197 2.604a129.995 129.995 0 0 1 9.098 27.513l1.9 9.019A5.83 5.83 0 0 0 27.307 75a5.834 5.834 0 0 0 5.751-4.924l2.68-16.74a4.054 4.054 0 0 1 3.997-3.421 4.054 4.054 0 0 1 3.996 3.421l2.68 16.74A5.834 5.834 0 0 0 52.16 75a5.83 5.83 0 0 0 5.645-4.407l1.9-9.02a130.001 130.001 0 0 1 9.099-27.512l1.197-2.604a.01.01 0 0 1 0-.007c3.838-10.111-.117-21.32-8.935-25.155-4.178-1.818-8.706-1.657-12.755.077Z" fill="url(#b)"/></mask><g mask="url(#c)"><path d="M30 13.062c0-.542-.434-.977-.967-1.072a6.547 6.547 0 0 1-5.397-6.445v-1.09C23.636 1.442 26.078 2 29.091 2a5.44 5.44 0 0 1 4.012 1.76A9.966 9.966 0 0 1 40 1c2.674 0 5.103 2.05 6.897 3.76a5.455 5.455 0 0 1 9.466 3.695v1.09a6.547 6.547 0 0 1-5.456 6.456c-.5.084-.907.492-.907.999 0 5.523-4.477 10-10 10s-10-4.477-10-10v-3.938Z" fill="url(#d)"/></g><defs><linearGradient id="a" x1="16.4" y1="5" x2="54.667" y2="72.2" gradientUnits="userSpaceOnUse"><stop stop-color="#F0F6F9"/><stop offset="1" stop-color="#CDDFF2"/></linearGradient><linearGradient id="b" x1="16.4" y1="5" x2="54.667" y2="72.2" gradientUnits="userSpaceOnUse"><stop stop-color="#F0F6F9"/><stop offset="1" stop-color="#CDDFF2"/></linearGradient><linearGradient id="d" x1="53.636" y1=".364" x2="42.926" y2="42.836" gradientUnits="userSpaceOnUse"><stop stop-color="#E6F0F8"/><stop offset="1" stop-color="#6F93BA"/></linearGradient></defs></svg>