<svg width="80" height="80" fill="none" xmlns="http://www.w3.org/2000/svg"><path d="M31.35 7.354c5.024 2.107 12.276 2.107 17.3 0 4.083-1.711 8.65-1.87 12.863-.076 8.894 3.785 12.882 14.85 9.008 24.83h.002l-2.593 6.395A4 4 0 0 1 64.223 41H15.776a4 4 0 0 1-3.706-2.497l-2.593-6.394.002-.001c-3.874-9.98.114-21.045 9.008-24.83 4.213-1.794 8.78-1.635 12.862.076Z" fill="url(#a)"/><path d="M31.35 7.354c5.024 2.107 12.276 2.107 17.3 0 4.083-1.711 8.65-1.87 12.863-.076 8.894 3.785 12.882 14.85 9.008 24.83h.002l-2.593 6.395A4 4 0 0 1 64.223 41H15.776a4 4 0 0 1-3.706-2.497l-2.593-6.394.002-.001c-3.874-9.98.114-21.045 9.008-24.83 4.213-1.794 8.78-1.635 12.862.076Z" fill="url(#b)" fill-opacity=".5"/><path d="M31.35 7.354c5.024 2.107 12.276 2.107 17.3 0 4.083-1.711 8.65-1.87 12.863-.076 8.894 3.785 12.882 14.85 9.008 24.83h.002l-2.593 6.395A4 4 0 0 1 64.223 41H15.776a4 4 0 0 1-3.706-2.497l-2.593-6.394.002-.001c-3.874-9.98.114-21.045 9.008-24.83 4.213-1.794 8.78-1.635 12.862.076Z" fill="url(#c)" fill-opacity=".2"/><path d="M22 44h36l-7.52 22.458a11.051 11.051 0 0 1-20.96 0L22 44Z" fill="url(#d)"/><path d="M12 43.5a2.5 2.5 0 0 1 2.5-2.5h51a2.5 2.5 0 0 1 0 5h-51a2.5 2.5 0 0 1-2.5-2.5Z" fill="url(#e)"/><path d="M27 66a2 2 0 0 1 2-2h22a2 2 0 1 1 0 4H29a2 2 0 0 1-2-2Z" fill="url(#f)"/><path d="M24.5 59a2 2 0 0 1 2-2h27a2 2 0 1 1 0 4h-27a2 2 0 0 1-2-2Z" fill="url(#g)"/><path d="M22 52a2 2 0 0 1 2-2h32a2 2 0 1 1 0 4H24a2 2 0 0 1-2-2Z" fill="url(#h)"/><defs><linearGradient id="a" x1="16.471" y1="6" x2="53.813" y2="73.01" gradientUnits="userSpaceOnUse"><stop stop-color="#F0F6F9"/><stop offset="1" stop-color="#CDDFF2"/></linearGradient><linearGradient id="b" x1="39.5" y1="42.5" x2="39.5" y2="39.5" gradientUnits="userSpaceOnUse"><stop offset=".242" stop-color="#5A778A"/><stop offset="1" stop-color="#DFEBF6" stop-opacity=".47"/></linearGradient><linearGradient id="c" x1="40" y1="41" x2="40" y2="37" gradientUnits="userSpaceOnUse"><stop stop-color="#5A778A"/><stop offset="1" stop-color="#065099" stop-opacity="0"/></linearGradient><linearGradient id="d" x1="58" y1="66.273" x2="17.045" y2="52.722" gradientUnits="userSpaceOnUse"><stop stop-color="#BBD4EC"/><stop offset="1" stop-color="#E9ECFA"/></linearGradient><linearGradient id="e" x1="30.034" y1="41" x2="45.215" y2="43.506" gradientUnits="userSpaceOnUse"><stop stop-color="#F0F3FF"/><stop offset="1" stop-color="#E1E5F5"/></linearGradient><linearGradient id="f" x1="35.373" y1="64" x2="40.684" y2="65.393" gradientUnits="userSpaceOnUse"><stop stop-color="#F1F4FF"/><stop offset="1" stop-color="#D5DAF0"/></linearGradient><linearGradient id="g" x1="36.609" y1="57" x2="43.04" y2="58.845" gradientUnits="userSpaceOnUse"><stop stop-color="#F1F4FF"/><stop offset="1" stop-color="#D5DAF0"/></linearGradient><linearGradient id="h" x1="36.5" y1="50" x2="44.011" y2="52.401" gradientUnits="userSpaceOnUse"><stop stop-color="#F1F4FF"/><stop offset="1" stop-color="#D5DAF0"/></linearGradient></defs></svg>