<svg width="80" height="80" fill="none" xmlns="http://www.w3.org/2000/svg"><path fill="url(#a)" d="M27 42h3v10h-3z"/><circle cx="28.5" cy="23.5" r="19.5" fill="url(#b)"/><circle cx="28.5" cy="23.5" r="16.5" fill="url(#c)"/><ellipse opacity=".55" cx="32.665" cy="29.968" rx="11.095" ry="7.978" transform="rotate(-35.894 32.665 29.968)" fill="url(#d)"/><g opacity=".3" filter="url(#e)"><ellipse cx="21.511" cy="17.511" rx="11.185" ry="6.508" transform="rotate(135 21.51 17.511)" fill="url(#f)"/></g><g filter="url(#g)"><path d="m20.48 9.13-.205-.982a1.163 1.163 0 0 0-2.284.04l-.119.686a6.962 6.962 0 0 1-5.508 5.643l-1.501.297a1.09 1.09 0 0 0 .043 2.146l1.163.183a6.992 6.992 0 0 1 5.812 5.765l.117.706a1.153 1.153 0 0 0 2.269.039l.255-1.275a6.552 6.552 0 0 1 5.374-5.18l1.437-.233a1.096 1.096 0 0 0 .044-2.156l-1.5-.307a6.936 6.936 0 0 1-5.397-5.373Z" fill="url(#h)"/></g><path d="m20.067 11.087-.434-3.417a.51.51 0 0 0-1.014.016l-.323 3.393a4.258 4.258 0 0 1-3.74 3.826l-4.126.487a.505.505 0 0 0 .018 1.004l3.892.32a4.334 4.334 0 0 1 3.962 3.924l.318 3.478a.508.508 0 0 0 1.01.015l.428-3.498a4.49 4.49 0 0 1 4.079-3.929l3.653-.308a.506.506 0 0 0 .019-1.007l-3.891-.474a4.42 4.42 0 0 1-3.85-3.83Z" fill="url(#i)"/><path d="M56 40.962a14 14 0 0 1 2.077-7.337l7.863-12.778a6 6 0 0 0-.186-6.573l-4.155-5.966a.404.404 0 0 1 .654-.476l5.322 6.985a6 6 0 0 1 .418 6.645l-7.105 12.257A14 14 0 0 0 59 40.739V52h-3V40.963Z" fill="url(#j)"/><path d="M56 40.962a14 14 0 0 1 2.077-7.337l7.863-12.778a6 6 0 0 0-.186-6.573l-4.155-5.966a.404.404 0 0 1 .654-.476l5.322 6.985a6 6 0 0 1 .418 6.645l-7.105 12.257A14 14 0 0 0 59 40.739V52h-3V40.963Z" fill="url(#k)" fill-opacity=".2"/><path d="M54.144 50.915A1 1 0 0 1 55.14 50h4.72a1 1 0 0 1 .996.915l1.676 19.605a5.05 5.05 0 1 1-10.064 0l1.676-19.605Z" fill="url(#l)"/><path d="M54.144 50.915A1 1 0 0 1 55.14 50h4.72a1 1 0 0 1 .996.915l1.676 19.605a5.05 5.05 0 1 1-10.064 0l1.676-19.605Z" fill="url(#m)" fill-opacity=".6"/><path d="M54.144 50.915A1 1 0 0 1 55.14 50h4.72a1 1 0 0 1 .996.915l1.676 19.605a5.05 5.05 0 1 1-10.064 0l1.676-19.605Z" fill="url(#n)" fill-opacity=".5"/><path d="M25.144 50.915A1 1 0 0 1 26.14 50h4.72a1 1 0 0 1 .996.915l1.676 19.605a5.05 5.05 0 1 1-10.064 0l1.676-19.605Z" fill="url(#o)"/><path d="M25.144 50.915A1 1 0 0 1 26.14 50h4.72a1 1 0 0 1 .996.915l1.676 19.605a5.05 5.05 0 1 1-10.064 0l1.676-19.605Z" fill="url(#p)" fill-opacity=".6"/><path d="M25.144 50.915A1 1 0 0 1 26.14 50h4.72a1 1 0 0 1 .996.915l1.676 19.605a5.05 5.05 0 1 1-10.064 0l1.676-19.605Z" fill="url(#q)" fill-opacity=".5"/><defs><linearGradient id="a" x1="29.5" y1="42.417" x2="27.281" y2="47.742" gradientUnits="userSpaceOnUse"><stop stop-color="#B9BED9"/><stop offset="1" stop-color="#D3D7E8"/></linearGradient><linearGradient id="b" x1="28.5" y1="4" x2="28.5" y2="43" gradientUnits="userSpaceOnUse"><stop stop-color="#E9ECF7"/><stop offset="1" stop-color="#CDD1E4"/></linearGradient><linearGradient id="c" x1="28.5" y1="7" x2="28.5" y2="40" gradientUnits="userSpaceOnUse"><stop stop-color="#fff"/><stop offset="1" stop-color="#E4E6ED"/></linearGradient><linearGradient id="d" x1="32.094" y1="18.44" x2="32.287" y2="43.996" gradientUnits="userSpaceOnUse"><stop stop-color="#fff" stop-opacity="0"/><stop offset="1" stop-color="#fff"/></linearGradient><linearGradient id="f" x1="17.529" y1="14.877" x2="17.859" y2="28.25" gradientUnits="userSpaceOnUse"><stop stop-color="#fff" stop-opacity="0"/><stop offset="1" stop-color="#fff"/></linearGradient><linearGradient id="h" x1="19.119" y1="7.224" x2="19.119" y2="24.579" gradientUnits="userSpaceOnUse"><stop stop-color="#fff"/><stop offset="1" stop-color="#fff"/></linearGradient><linearGradient id="i" x1="19.119" y1="7.224" x2="19.119" y2="24.579" gradientUnits="userSpaceOnUse"><stop stop-color="#fff"/><stop offset="1" stop-color="#fff"/></linearGradient><linearGradient id="j" x1="67.308" y1="55.756" x2="56.074" y2="12.273" gradientUnits="userSpaceOnUse"><stop stop-color="#B9BED9"/><stop offset="1" stop-color="#D3D7E8"/></linearGradient><linearGradient id="k" x1="57.077" y1="33.756" x2="58.689" y2="34.834" gradientUnits="userSpaceOnUse"><stop stop-color="#fff"/><stop offset="1" stop-color="#fff" stop-opacity="0"/></linearGradient><linearGradient id="l" x1="52" y1="63.619" x2="62.006" y2="64.118" gradientUnits="userSpaceOnUse"><stop stop-color="#698CA2"/><stop offset=".313" stop-color="#BBD4EC"/><stop offset="1" stop-color="#CDDFF2"/></linearGradient><linearGradient id="m" x1="57" y1="75" x2="57" y2="63" gradientUnits="userSpaceOnUse"><stop stop-color="#698CA2"/><stop offset=".649" stop-color="#CDDFF2"/></linearGradient><linearGradient id="n" x1="57.5" y1="50" x2="57.5" y2="51.5" gradientUnits="userSpaceOnUse"><stop stop-color="#fff"/><stop offset="1" stop-color="#fff" stop-opacity="0"/></linearGradient><linearGradient id="o" x1="23" y1="63.619" x2="33.006" y2="64.118" gradientUnits="userSpaceOnUse"><stop stop-color="#698CA2"/><stop offset=".313" stop-color="#BBD4EC"/><stop offset="1" stop-color="#CDDFF2"/></linearGradient><linearGradient id="p" x1="28" y1="75" x2="28" y2="63" gradientUnits="userSpaceOnUse"><stop stop-color="#698CA2"/><stop offset=".649" stop-color="#CDDFF2"/></linearGradient><linearGradient id="q" x1="28.5" y1="50" x2="28.5" y2="51.5" gradientUnits="userSpaceOnUse"><stop stop-color="#fff"/><stop offset="1" stop-color="#fff" stop-opacity="0"/></linearGradient><filter id="e" x="8.359" y="4.359" width="26.304" height="26.304" filterUnits="userSpaceOnUse" color-interpolation-filters="sRGB"><feFlood flood-opacity="0" result="BackgroundImageFix"/><feBlend in="SourceGraphic" in2="BackgroundImageFix" result="shape"/><feGaussianBlur stdDeviation="2" result="effect1_foregroundBlur_41_428"/></filter><filter id="g" x="5.985" y="3.224" width="26.269" height="25.355" filterUnits="userSpaceOnUse" color-interpolation-filters="sRGB"><feFlood flood-opacity="0" result="BackgroundImageFix"/><feBlend in="SourceGraphic" in2="BackgroundImageFix" result="shape"/><feGaussianBlur stdDeviation="2" result="effect1_foregroundBlur_41_428"/></filter></defs></svg>