<svg width="89" height="87" fill="none" xmlns="http://www.w3.org/2000/svg"><g clip-path="url(#a)"><path fill-rule="evenodd" clip-rule="evenodd" d="M3.372 78.81V17.148a6.328 6.328 0 0 1 .125-1.266 6.504 6.504 0 0 1 .971-2.34 6.773 6.773 0 0 1 .81-.985 6.548 6.548 0 0 1 1.532-1.134 6.515 6.515 0 0 1 3.067-.767h61.781L3.372 78.81Z" fill="#1EA361"/><path fill-rule="evenodd" clip-rule="evenodd" d="M3.372 80.102v-1.295l68.286-68.153h1.297a6.566 6.566 0 0 1 1.888.28 6.64 6.64 0 0 1 1.178.486 6.54 6.54 0 0 1 1.962 1.607 6.631 6.631 0 0 1 .708 1.059 6.44 6.44 0 0 1 .643 1.794 6.466 6.466 0 0 1 .125 1.266v1.277L11.173 86.576H9.898a6.371 6.371 0 0 1-1.27-.124 6.604 6.604 0 0 1-1.796-.642 6.389 6.389 0 0 1-1.06-.707 6.548 6.548 0 0 1-1.61-1.958 6.47 6.47 0 0 1-.769-3.06" fill="#FEDB43"/><path fill-rule="evenodd" clip-rule="evenodd" d="m11.199 86.597 30.24-30.181 30.24 30.181H11.2Z" fill="#5384C4"/><path fill-rule="evenodd" clip-rule="evenodd" d="M71.68 86.598 41.439 56.391l7.805-7.79 30.263 30.202v1.295c0 3.584-2.916 6.492-6.51 6.492h-1.296l-.021.008Z" fill="#fff"/><path fill-rule="evenodd" clip-rule="evenodd" d="M79.506 78.81 49.223 48.63l30.24-30.182.043 60.363Z" fill="#C2C2C1"/><path d="M16.968 19.049c3.87-1.767 8.716-1.047 11.857 1.847l-2.986 2.952c-3.143-3.116-9.053-1.638-10.526 2.484-1.928 4.055 1.275 9.365 5.807 9.444 2.986.345 5.924-1.639 6.547-4.587-2.069.005-4.137-.015-6.185.015l-.038-3.824 10.413.14c.26 2.525.082 5.206-1.279 7.422-2.133 3.965-7.172 5.696-11.435 4.695-5.272-1.09-9.217-6.487-8.496-11.834.368-3.772 2.921-7.19 6.36-8.752" fill="#EFEFEF"/><mask id="b" style="mask-type:luminance" maskUnits="userSpaceOnUse" x="46" y="-1" width="43" height="68"><path d="M46.188-.013h42.6V66.89h-42.6V-.014Z" fill="#fff"/></mask><g mask="url(#b)"><path d="M66.199-.038h2.474c6.184.353 12.192 3.359 15.93 8.301 2.449 3.125 3.813 7.024 4.12 10.94v1.463c-.143 7.633-5.037 13.898-9.276 19.837-4.756 6.709-9.153 14.02-10.374 22.29-.326 1.4.064 3.362-1.611 3.994-.395-.306-.854-.56-1.131-.99-.497-4.622-1.655-9.188-3.63-13.409-2.239-4.895-5.363-9.365-8.534-13.713-1.93-2.61-3.754-5.308-5.26-8.186-2.345-4.313-3.247-9.408-2.281-14.249.793-3.82 2.772-7.36 5.57-10.097C55.932 2.497 60.983.29 66.199-.036m-.482 13.445c-2.922.652-5.379 3.236-5.626 6.258-.307 2.814 1.343 5.669 3.869 6.912 2.738 1.447 6.334 1 8.622-1.064 2.136-1.887 2.913-5.143 1.797-7.778-1.322-3.3-5.237-5.176-8.664-4.3" fill="#DC4B3E"/></g><path d="M65.715 13.406c3.425-.85 7.344 1 8.664 4.3 1.116 2.635.338 5.892-1.797 7.778-2.288 2.09-5.886 2.553-8.622 1.064-2.528-1.243-4.176-4.098-3.87-6.912.248-3.022 2.703-5.604 5.627-6.257" fill="#802C27"/></g><defs><clipPath id="a"><path fill="#fff" d="M0 0h89v87H0z"/></clipPath></defs></svg>