<svg width="138" height="177" fill="none" xmlns="http://www.w3.org/2000/svg"><path d="M0 177V0h138v177l-69-29.672L0 177Z" fill="#B3E673"/><path d="M49.781 116h-6.61L89.25 48.781h6.61L49.78 116Zm-.093-68.156c4.468 0 8.046 1.39 10.734 4.172 2.687 2.78 4.031 6.468 4.031 11.062 0 4.625-1.344 8.328-4.031 11.11-2.688 2.78-6.266 4.171-10.734 4.171-4.532 0-8.141-1.39-10.829-4.171-2.718-2.75-4.078-6.454-4.078-11.11 0-4.594 1.36-8.281 4.078-11.062 2.688-2.782 6.297-4.172 10.828-4.172Zm6.656 22.64c1.687-1.906 2.531-4.375 2.531-7.406 0-3.031-.844-5.5-2.531-7.406-1.688-1.906-3.907-2.86-6.657-2.86-2.812 0-5.062.954-6.75 2.86-1.718 1.906-2.578 4.375-2.578 7.406 0 3.031.86 5.5 2.578 7.406 1.688 1.938 3.938 2.907 6.75 2.907 2.75 0 4.97-.97 6.657-2.907Zm33 46.454c-4.469 0-8.047-1.391-10.735-4.172-2.718-2.782-4.078-6.485-4.078-11.11 0-4.594 1.344-8.281 4.031-11.062 2.688-2.781 6.282-4.172 10.782-4.172 4.531 0 8.14 1.39 10.828 4.172 2.687 2.781 4.031 6.469 4.031 11.062 0 4.625-1.344 8.328-4.031 11.11-2.688 2.781-6.297 4.172-10.828 4.172Zm-6.656-22.641c-1.72 1.906-2.579 4.375-2.579 7.406 0 3 .86 5.453 2.579 7.359 1.687 1.938 3.906 2.907 6.656 2.907 2.812 0 5.062-.969 6.75-2.907 1.687-1.937 2.531-4.39 2.531-7.359 0-3.031-.844-5.5-2.531-7.406-1.688-1.906-3.938-2.86-6.75-2.86-2.75 0-4.969.954-6.656 2.86Z" fill="#fff"/></svg>