<svg width="80" height="80" fill="none" xmlns="http://www.w3.org/2000/svg"><path d="M42.952 78.353a5.667 5.667 0 0 1-5.904 0c-5.936-3.578-19.376-13.059-26.733-29.191C4.966 37.433 4.846 20.9 5.055 14.155c.052-1.676 1.516-2.935 3.192-2.927 3.652.02 10.073-.32 16.396-2.478 6.105-2.084 10.652-5.052 13.156-6.94 1.277-.962 3.125-.962 4.402 0 2.504 1.888 7.051 4.856 13.156 6.94 6.323 2.157 12.744 2.498 16.395 2.478 1.677-.008 3.14 1.251 3.193 2.927.209 6.745.089 23.278-5.26 35.007-7.357 16.132-20.797 25.613-26.733 29.19Z" fill="url(#a)"/><path fill-rule="evenodd" clip-rule="evenodd" d="M43.514 25.569c-2.041.884-4.987.884-7.028 0-1.659-.719-3.514-.786-5.226-.033-3.612 1.59-5.232 6.233-3.66 10.422v.003l.49 1.079a54.285 54.285 0 0 1 3.728 11.398l.778 3.736A2.394 2.394 0 0 0 34.91 54c1.172 0 2.17-.864 2.356-2.04l1.098-6.935A1.666 1.666 0 0 1 40 43.608c.814 0 1.508.6 1.637 1.417l1.098 6.935C42.92 53.136 43.919 54 45.09 54a2.394 2.394 0 0 0 2.313-1.826l.778-3.736a54.288 54.288 0 0 1 3.727-11.399l.491-1.078v-.003c1.572-4.19-.048-8.833-3.66-10.422-1.712-.753-3.567-.686-5.226.033Z" fill="url(#b)"/><path fill-rule="evenodd" clip-rule="evenodd" d="M38.227 75.75c1.1.661 2.447.661 3.546 0 4.774-2.872 18.025-11.923 25.254-27.642 5.325-11.578 5.393-28.035 5.274-33.107-.02-.85-.758-1.49-1.608-1.463-2.976.096-9.778.007-16.462-2.255-6.487-2.195-11.076-5.746-13.089-7.512a1.755 1.755 0 0 0-2.284 0c-2.013 1.766-6.602 5.317-13.089 7.513-6.684 2.261-13.486 2.35-16.461 2.254C8.458 13.51 7.72 14.15 7.7 15c-.12 5.072-.052 21.529 5.273 33.107 7.229 15.72 20.48 24.77 25.254 27.642Zm.466-8.48a2.543 2.543 0 0 0 2.614 0c3.536-2.102 13.387-8.785 18.758-20.77 4.01-8.947 4.005-21.951 3.912-25.685-.015-.568-.506-.998-1.074-.977-2.144.08-7.286.04-12.338-1.713-4.95-1.72-8.412-4.3-9.838-5.486a1.15 1.15 0 0 0-1.454 0c-1.426 1.187-4.887 3.767-9.838 5.486-5.052 1.754-10.194 1.792-12.338 1.713-.568-.021-1.06.409-1.074.977-.093 3.734-.098 16.738 3.912 25.685 5.371 11.985 15.222 18.668 18.758 20.77Z" fill="url(#c)"/><path fill-rule="evenodd" clip-rule="evenodd" d="M38.227 75.75c1.1.661 2.447.661 3.546 0 4.774-2.872 18.025-11.923 25.254-27.642 5.325-11.578 5.393-28.035 5.274-33.107-.02-.85-.758-1.49-1.608-1.463-2.976.096-9.778.007-16.462-2.255-6.487-2.195-11.076-5.746-13.089-7.512a1.755 1.755 0 0 0-2.284 0c-2.013 1.766-6.602 5.317-13.089 7.513-6.684 2.261-13.486 2.35-16.461 2.254C8.458 13.51 7.72 14.15 7.7 15c-.12 5.072-.052 21.529 5.273 33.107 7.229 15.72 20.48 24.77 25.254 27.642Zm.466-8.48a2.543 2.543 0 0 0 2.614 0c3.536-2.102 13.387-8.785 18.758-20.77 4.01-8.947 4.005-21.951 3.912-25.685-.015-.568-.506-.998-1.074-.977-2.144.08-7.286.04-12.338-1.713-4.95-1.72-8.412-4.3-9.838-5.486a1.15 1.15 0 0 0-1.454 0c-1.426 1.187-4.887 3.767-9.838 5.486-5.052 1.754-10.194 1.792-12.338 1.713-.568-.021-1.06.409-1.074.977-.093 3.734-.098 16.738 3.912 25.685 5.371 11.985 15.222 18.668 18.758 20.77Z" fill="url(#d)" fill-opacity=".2"/><path fill-rule="evenodd" clip-rule="evenodd" d="M38.227 75.75c1.1.661 2.447.661 3.546 0 4.774-2.872 18.025-11.923 25.254-27.642 5.325-11.578 5.393-28.035 5.274-33.107-.02-.85-.758-1.49-1.608-1.463-2.976.096-9.778.007-16.462-2.255-6.487-2.195-11.076-5.746-13.089-7.512a1.755 1.755 0 0 0-2.284 0c-2.013 1.766-6.602 5.317-13.089 7.513-6.684 2.261-13.486 2.35-16.461 2.254C8.458 13.51 7.72 14.15 7.7 15c-.12 5.072-.052 21.529 5.273 33.107 7.229 15.72 20.48 24.77 25.254 27.642Zm.466-8.48a2.543 2.543 0 0 0 2.614 0c3.536-2.102 13.387-8.785 18.758-20.77 4.01-8.947 4.005-21.951 3.912-25.685-.015-.568-.506-.998-1.074-.977-2.144.08-7.286.04-12.338-1.713-4.95-1.72-8.412-4.3-9.838-5.486a1.15 1.15 0 0 0-1.454 0c-1.426 1.187-4.887 3.767-9.838 5.486-5.052 1.754-10.194 1.792-12.338 1.713-.568-.021-1.06.409-1.074.977-.093 3.734-.098 16.738 3.912 25.685 5.371 11.985 15.222 18.668 18.758 20.77Z" fill="url(#e)" fill-opacity=".14"/><g filter="url(#f)"><rect x="38" y="2" width="4" height="7" rx="2" fill="#E2E6F5"/></g><g filter="url(#g)"><rect x="38" y="71" width="4" height="7" rx="2" fill="#C7CBDF"/></g><g filter="url(#h)"><rect x="6" y="14.829" width="4" height="5" rx="2" transform="rotate(-45 6 14.829)" fill="#E4F6FE"/></g><g filter="url(#i)"><rect width="4" height="5" rx="2" transform="scale(-1 1) rotate(-45 -19.282 97.18)" fill="#E4F6FE"/></g><defs><linearGradient id="a" x1="40" y1="0" x2="41.019" y2="79.987" gradientUnits="userSpaceOnUse"><stop stop-color="#E2E6F5"/><stop offset="1" stop-color="#C6CADE"/></linearGradient><linearGradient id="b" x1="30.441" y1="25" x2="46.385" y2="52.686" gradientUnits="userSpaceOnUse"><stop stop-color="#F5F6FA"/><stop offset="1" stop-color="#DDDFEA"/></linearGradient><linearGradient id="c" x1="47.782" y1="74.01" x2="-17.753" y2="-35.193" gradientUnits="userSpaceOnUse"><stop stop-color="#E2E6F5"/><stop offset=".705" stop-color="#C6CADE"/></linearGradient><linearGradient id="d" x1="40" y1="3.137" x2="40" y2="76.246" gradientUnits="userSpaceOnUse"><stop stop-color="#5A778A"/><stop offset="1" stop-color="#BBD4EC"/></linearGradient><filter id="f" x="34" y="2" width="12" height="15" filterUnits="userSpaceOnUse" color-interpolation-filters="sRGB"><feFlood flood-opacity="0" result="BackgroundImageFix"/><feColorMatrix in="SourceAlpha" values="0 0 0 0 0 0 0 0 0 0 0 0 0 0 0 0 0 0 127 0" result="hardAlpha"/><feOffset dy="4"/><feGaussianBlur stdDeviation="2"/><feComposite in2="hardAlpha" operator="out"/><feColorMatrix values="0 0 0 0 0.0684722 0 0 0 0 0.0823278 0 0 0 0 0.414861 0 0 0 0.15 0"/><feBlend in2="BackgroundImageFix" result="effect1_dropShadow_41_305"/><feBlend in="SourceGraphic" in2="effect1_dropShadow_41_305" result="shape"/></filter><filter id="g" x="34" y="64" width="12" height="15" filterUnits="userSpaceOnUse" color-interpolation-filters="sRGB"><feFlood flood-opacity="0" result="BackgroundImageFix"/><feColorMatrix in="SourceAlpha" values="0 0 0 0 0 0 0 0 0 0 0 0 0 0 0 0 0 0 127 0" result="hardAlpha"/><feOffset dy="-3"/><feGaussianBlur stdDeviation="2"/><feComposite in2="hardAlpha" operator="out"/><feColorMatrix values="0 0 0 0 0.0684722 0 0 0 0 0.0823278 0 0 0 0 0.414861 0 0 0 0.15 0"/><feBlend in2="BackgroundImageFix" result="effect1_dropShadow_41_305"/><feBlend in="SourceGraphic" in2="effect1_dropShadow_41_305" result="shape"/></filter><filter id="h" x="3.828" y="11.829" width="12.707" height="12.707" filterUnits="userSpaceOnUse" color-interpolation-filters="sRGB"><feFlood flood-opacity="0" result="BackgroundImageFix"/><feColorMatrix in="SourceAlpha" values="0 0 0 0 0 0 0 0 0 0 0 0 0 0 0 0 0 0 127 0" result="hardAlpha"/><feOffset dx="1" dy="3"/><feGaussianBlur stdDeviation="2"/><feComposite in2="hardAlpha" operator="out"/><feColorMatrix values="0 0 0 0 0.0684722 0 0 0 0 0.0823278 0 0 0 0 0.414861 0 0 0 0.15 0"/><feBlend in2="BackgroundImageFix" result="effect1_dropShadow_41_305"/><feBlend in="SourceGraphic" in2="effect1_dropShadow_41_305" result="shape"/></filter><filter id="i" x="63.828" y="11.829" width="12.707" height="12.707" filterUnits="userSpaceOnUse" color-interpolation-filters="sRGB"><feFlood flood-opacity="0" result="BackgroundImageFix"/><feColorMatrix in="SourceAlpha" values="0 0 0 0 0 0 0 0 0 0 0 0 0 0 0 0 0 0 127 0" result="hardAlpha"/><feOffset dx="-1" dy="3"/><feGaussianBlur stdDeviation="2"/><feComposite in2="hardAlpha" operator="out"/><feColorMatrix values="0 0 0 0 0.0684722 0 0 0 0 0.0823278 0 0 0 0 0.414861 0 0 0 0.15 0"/><feBlend in2="BackgroundImageFix" result="effect1_dropShadow_41_305"/><feBlend in="SourceGraphic" in2="effect1_dropShadow_41_305" result="shape"/></filter><radialGradient id="e" cx="0" cy="0" r="1" gradientUnits="userSpaceOnUse" gradientTransform="matrix(0 86.5 -69.4527 0 40 -10)"><stop offset="0" stop-color="#5A778A"/><stop offset="1" stop-color="#BBD4EC"/></radialGradient></defs></svg>