<svg width="80" height="80" fill="none" xmlns="http://www.w3.org/2000/svg"><path fill-rule="evenodd" clip-rule="evenodd" d="M48.312 6.372c-4.983 2.135-12.174 2.135-17.157 0-4.049-1.734-8.577-1.895-12.755-.077C9.582 10.13 5.627 21.339 9.465 31.45a.01.01 0 0 1 0 .007l1.197 2.604a129.995 129.995 0 0 1 9.098 27.513l1.9 9.019A5.83 5.83 0 0 0 27.307 75a5.834 5.834 0 0 0 5.751-4.924l2.68-16.74a4.054 4.054 0 0 1 3.997-3.421 4.054 4.054 0 0 1 3.996 3.421l2.68 16.74A5.834 5.834 0 0 0 52.16 75a5.83 5.83 0 0 0 5.645-4.407l1.9-9.02a130.001 130.001 0 0 1 9.099-27.512l1.197-2.604a.01.01 0 0 1 0-.007c3.838-10.111-.117-21.32-8.935-25.155-4.178-1.818-8.706-1.657-12.755.077Z" fill="url(#a)"/><g filter="url(#b)"><path d="m20.25 13.402-.474-2.254a1.444 1.444 0 0 0-2.835.05l-.34 1.965a7 7 0 0 1-5.538 5.673l-2.973.589a1.353 1.353 0 0 0 .053 2.664l2.644.415a7 7 0 0 1 5.82 5.772l.343 2.076a1.432 1.432 0 0 0 2.817.047l.472-2.354a7 7 0 0 1 5.74-5.534l2.562-.416a1.361 1.361 0 0 0 .055-2.677l-2.9-.594a7 7 0 0 1-5.447-5.422Z" fill="url(#c)"/></g><path d="m19.519 14.796-.54-4.242a.634.634 0 0 0-1.259.02l-.4 4.213a5.288 5.288 0 0 1-4.644 4.75l-5.123.605a.627.627 0 0 0 .022 1.247l4.833.396a5.382 5.382 0 0 1 4.92 4.874l.395 4.318a.63.63 0 0 0 1.254.019l.531-4.344a5.574 5.574 0 0 1 5.064-4.878l4.537-.383a.628.628 0 0 0 .023-1.25l-4.832-.589a5.488 5.488 0 0 1-4.781-4.756Z" fill="url(#d)"/><g filter="url(#e)"><path d="m59.3 42.487-.161-.766a.908.908 0 0 0-1.783.032l-.093.535a5.436 5.436 0 0 1-4.3 4.406l-1.172.232a.85.85 0 0 0 .033 1.675l.908.143a5.459 5.459 0 0 1 4.538 4.501l.091.552a.9.9 0 0 0 1.772.03l.2-.996a5.116 5.116 0 0 1 4.195-4.044l1.122-.182a.856.856 0 0 0 .034-1.683l-1.17-.24a5.416 5.416 0 0 1-4.215-4.195Z" fill="url(#f)"/></g><path d="m58.977 44.016-.34-2.668a.398.398 0 0 0-.791.013l-.252 2.649a3.325 3.325 0 0 1-2.92 2.986l-3.221.381a.394.394 0 0 0 .014.784l3.038.25a3.384 3.384 0 0 1 3.094 3.063l.248 2.716a.397.397 0 0 0 .789.012l.334-2.732a3.505 3.505 0 0 1 3.184-3.067l2.852-.24a.395.395 0 0 0 .015-.787l-3.038-.37a3.45 3.45 0 0 1-3.006-2.99Z" fill="url(#g)"/><defs><linearGradient id="a" x1="16.4" y1="5" x2="54.667" y2="72.2" gradientUnits="userSpaceOnUse"><stop stop-color="#BBD4EC"/><stop offset="1" stop-color="#CDDFF2"/></linearGradient><linearGradient id="c" x1="18.342" y1="10" x2="18.342" y2="31.55" gradientUnits="userSpaceOnUse"><stop stop-color="#fff"/><stop offset="1" stop-color="#fff"/></linearGradient><linearGradient id="d" x1="18.342" y1="10" x2="18.342" y2="31.55" gradientUnits="userSpaceOnUse"><stop stop-color="#fff"/><stop offset="1" stop-color="#fff"/></linearGradient><linearGradient id="f" x1="58.237" y1="41" x2="58.237" y2="54.55" gradientUnits="userSpaceOnUse"><stop stop-color="#fff"/><stop offset="1" stop-color="#fff"/></linearGradient><linearGradient id="g" x1="58.237" y1="41" x2="58.237" y2="54.55" gradientUnits="userSpaceOnUse"><stop stop-color="#fff"/><stop offset="1" stop-color="#fff"/></linearGradient><filter id="b" x="3" y="6" width="30.684" height="29.55" filterUnits="userSpaceOnUse" color-interpolation-filters="sRGB"><feFlood flood-opacity="0" result="BackgroundImageFix"/><feBlend in="SourceGraphic" in2="BackgroundImageFix" result="shape"/><feGaussianBlur stdDeviation="2" result="effect1_foregroundBlur_41_309"/></filter><filter id="e" x="47.105" y="37" width="22.263" height="21.55" filterUnits="userSpaceOnUse" color-interpolation-filters="sRGB"><feFlood flood-opacity="0" result="BackgroundImageFix"/><feBlend in="SourceGraphic" in2="BackgroundImageFix" result="shape"/><feGaussianBlur stdDeviation="2" result="effect1_foregroundBlur_41_309"/></filter></defs></svg>