<svg width="86" height="86" fill="none" xmlns="http://www.w3.org/2000/svg"><mask id="b" style="mask-type:alpha" maskUnits="userSpaceOnUse" x="10" y="37" width="65" height="43"><path d="M10.75 41.549a3.924 3.924 0 0 1 3.924-3.924h.254a6.498 6.498 0 0 1 6.068 4.175 10.21 10.21 0 0 0 11.864 6.29l7.127-1.669a13.305 13.305 0 0 1 6.028-.008l7.514 1.735a9.744 9.744 0 0 0 11.411-6.334 6.2 6.2 0 0 1 5.866-4.19h.353a3.826 3.826 0 0 1 3.818 4.081L73.195 68.35a12 12 0 0 1-11.973 11.2h-36.53a12 12 0 0 1-11.967-11.108L10.75 41.925v-.376Z" fill="url(#a)"/></mask><g mask="url(#b)"><path fill="#F7A6A5" d="M10.75 37.625h64.5V79.55h-64.5z"/><path opacity=".6" fill="url(#c)" d="M30.1 46.698h24.725V66.65H30.1z"/><path opacity=".6" transform="rotate(56.208 18.11 31.695)" fill="url(#d)" d="M18.11 31.695h34.235v11.199H18.11z"/><path opacity=".6" transform="scale(-1 1) rotate(57.697 -64.766 -45.718)" fill="url(#e)" d="M0 0h34.235v8.808H0z"/></g><path fill-rule="evenodd" clip-rule="evenodd" d="M50.556 8.726c-4.389 1.869-10.723 1.869-15.112 0-3.566-1.518-7.554-1.659-11.234-.068-7.767 3.358-11.25 13.17-7.87 22.02v.006l1.055 2.28a113.315 113.315 0 0 1 8.013 24.083l1.674 7.895a5.13 5.13 0 0 0 4.972 3.858 5.128 5.128 0 0 0 5.066-4.31l2.36-14.654A3.564 3.564 0 0 1 43 46.842a3.564 3.564 0 0 1 3.52 2.994l2.36 14.654a5.128 5.128 0 0 0 5.066 4.31 5.13 5.13 0 0 0 4.972-3.858l1.674-7.895c1.76-8.3 4.447-16.377 8.013-24.083l1.055-2.28v-.006c3.38-8.85-.103-18.662-7.87-22.02-3.68-1.59-7.668-1.45-11.234.068Z" fill="url(#f)"/><defs><linearGradient id="a" x1="43" y1="37.625" x2="43" y2="79.55" gradientUnits="userSpaceOnUse"><stop stop-color="#F7A6A5"/><stop offset="1" stop-color="#F7A6A5"/></linearGradient><linearGradient id="c" x1="42.462" y1="46.698" x2="42.462" y2="66.65" gradientUnits="userSpaceOnUse"><stop stop-color="#E78180"/><stop offset="1" stop-color="#E78180" stop-opacity="0"/></linearGradient><linearGradient id="d" x1="35.227" y1="31.695" x2="35.227" y2="42.895" gradientUnits="userSpaceOnUse"><stop stop-color="#E78180"/><stop offset="1" stop-color="#E78180" stop-opacity="0"/></linearGradient><linearGradient id="e" x1="17.117" y1="0" x2="17.117" y2="8.808" gradientUnits="userSpaceOnUse"><stop stop-color="#E78180"/><stop offset="1" stop-color="#E78180" stop-opacity="0"/></linearGradient><linearGradient id="f" x1="22.449" y1="7.525" x2="55.84" y2="66.526" gradientUnits="userSpaceOnUse"><stop stop-color="#F0F6F9"/><stop offset="1" stop-color="#CDDFF2"/></linearGradient></defs></svg>