<svg width="60" height="61" fill="none" xmlns="http://www.w3.org/2000/svg"><path d="M48.254 53.97c5.103-3.514 8.435-8.467 10.249-14.267 5.778-18.416-5.736-36.62-24.8-39.415C16.663-2.21.299 11.888.003 29.246c-.126 9.356 3.164 17.188 10.039 23.497.506.465.97 1.058 1.687 1.227.042-.635-.042-1.312.168-1.863.633-1.566.17-3.767 1.477-4.783 3.332-2.625 7.127-4.446 11.556-4.446.169-.677.295-1.312.464-1.99-.253-1.397.59-3.005-.801-4.149-1.14-.889-1.772-2.116-2.447-3.302-.843-1.609-1.687-3.09-3.079-4.36-1.77-1.61-1.77-4.403-.421-6.478 0-2.244-.085-4.488 0-6.774.168-5.376 5.314-9.314 10.67-8.975 3.08.212 5.61 1.566 8.351 2.456 2.615.846 5.273 3.98 4.682 7.535-.295 1.905-.843 3.81-.97 5.758 1.265 1.736 1.35 3.81.169 5.292-1.856 2.413-3.037 5.334-5.061 7.536-1.561 1.693-2.025 3.345-1.898 5.419.168.677.337 1.355.464 2.032 1.687-.296 3.036.89 4.597.974 2.362-.127 4.766-.339 5.862 2.498l.043.042c1.307-.212 1.855.339 1.602 1.651.085 2.032 1.35 3.853 1.097 5.927Z" fill="#A2A6AA"/><path d="M39.734 43.81c-1.603-.085-2.952-1.313-4.597-.974 0 .084-.042.127-.042.212-1.35 4.19-1.392 4.233-4.218 1.1-.76-.847-1.139-.677-1.73.085-.716.931-1.56 1.778-2.446 2.752-.885-1.355-1.391-2.71-1.729-4.15-4.428 0-8.182 1.821-11.556 4.446-1.308 1.016-.886 3.218-1.476 4.784-.211.55-.127 1.27-.17 1.863 6.496 5.419 14.004 7.112 22.228 6.096 5.314-.635 10.165-2.54 14.298-6.096.253-2.075-1.054-3.895-1.012-5.927-.802-.339-1.392-.805-1.603-1.651l-.042-.043-5.82-2.286c-.043 0-.043-.127-.085-.212Z" fill="#7C7B7B"/><path d="M18.688 22.515c-1.392 2.074-1.35 4.91.422 6.477 1.391 1.27 2.235 2.794 3.079 4.36.632 1.186 1.307 2.414 2.446 3.303 1.392 1.1.506 2.752.801 4.149 3.248 2.413 4.85 3.218 9.237-.042-.127-2.075.337-3.768 1.898-5.42 2.024-2.201 3.205-5.122 5.061-7.535 1.139-1.482 1.055-3.557-.169-5.292-2.657-.127-1.012 2.37-2.235 3.556-.253-2.498-1.73-4.488-.59-6.986.759-1.65-.127-2.963-1.645-3.852-1.56-.89-2.362.254-3.122 1.228-1.012 1.354-2.024 2.54-3.838 2.878-1.56.297-2.657 2.329-4.85.974-.548-.338-2.868.424-3.332 2.244a97.298 97.298 0 0 1-.97 3.302c-.422-.804-.464-1.609-.59-2.413-.211-.804-.507-1.566-1.603-.931Z" fill="#E4E4E4"/><path d="M18.688 22.515c1.097-.635 1.35.127 1.518.931.127.762.17 1.567.59 2.413.338-1.1.676-2.201.97-3.302.465-1.82 2.785-2.582 3.333-2.244 2.193 1.355 3.247-.677 4.85-.973 1.814-.34 2.826-1.524 3.838-2.88.76-.973 1.56-2.116 3.121-1.227 1.519.889 2.404 2.201 1.645 3.853-1.139 2.497.338 4.53.59 6.985 1.224-1.185-.421-3.683 2.236-3.556.127-1.948.675-3.853.97-5.758.549-3.556-2.066-6.647-4.681-7.536-2.742-.889-5.273-2.286-8.351-2.455-5.357-.339-10.503 3.64-10.671 8.975 0 2.286.042 4.53.042 6.774Z" fill="#595450"/><path d="M34.63 40.804c-4.386 3.217-5.989 2.455-9.236.042-.169.677-.295 1.355-.464 1.99.337 1.44.843 2.794 1.73 4.149.885-1.016 1.729-1.82 2.445-2.752.591-.804.97-.974 1.73-.085 2.826 3.175 2.868 3.133 4.217-1.1.043-.085.043-.128.043-.212a35.227 35.227 0 0 0-.464-2.032Z" fill="#EDEDED"/><path d="M39.734 43.81c0 .084 0 .169.042.211l5.82 2.286c-1.096-2.836-3.5-2.625-5.862-2.498Zm5.905 2.582c.21.89.843 1.355 1.603 1.651.253-1.312-.253-1.862-1.603-1.65Z" fill="#7F817B"/><circle cx="52.4" cy="52.4" r="6.85" fill="#8C8C8C" stroke="#C4C4C4" stroke-width="1.5"/></svg>