<svg width="60" height="61" fill="none" xmlns="http://www.w3.org/2000/svg"><g clip-path="url(#a)"><path d="M36.203 43.932c2.031.864 4.194 1.5 6.093 2.683 1.766 1.137 2.825 2.593 2.958 4.82.088 1.32.441 2.593.486 3.912.088 1.5.485 1.637 1.589.728 4.018-3.184 7.285-6.958 9.536-11.643 9.14-19.01-3.09-41.794-23.576-44.204C18.366-1.546 4.327 8.596.751 23.603c-2.914 12.189 1.986 25.605 12.008 32.654.972.682 1.192.409 1.325-.592.177-1.364.353-2.728.486-4.047.22-2.001 1.147-3.457 2.825-4.548 1.943-1.228 4.062-2.046 6.181-2.956-.176-1.683 1.06-1.273 1.899-1.364.485-1.82.794-3.73-.133-5.458-.618-1.228-1.677-2.228-2.516-3.32-1.28-.227-2.296-1.182-3.4-1.637-1.633-.637-2.428-2.092-3.311-3.183-1.104-1.364-1.899-3.366-2.031-5.276-.088-1.228-.574-2.546-.353-3.683.309-1.456.485-2.956.75-4.412.398-2.046 1.236-4.002 2.429-5.503.97-1.273 2.163-2.637 3.885-3.228.574-.228 1.324-.046 1.81-.728.883-1.183 2.428-1.183 3.576-1.41a20.101 20.101 0 0 1 6.402-.09c2.472.363 4.415 1.545 6.534 2.546 1.104.5 1.898 1.683 2.782 2.228 1.456.955 1.898 2.41 2.34 3.502 1.28 3.229 1.898 6.73 1.412 10.233-.176 1.273-.22 2.774-1.06 3.82-.927 1.137-1.324 2.592-2.516 3.683-.795.728-1.943.956-2.472 1.82-.574.91-1.237 1-2.12.91-2.472 2.546-4.724 5.138-3.31 9.186.926.136 2.118-.455 2.03 1.182Z" fill="#919191"/><path d="M24.724 47.48c-.265 2.865-.044 5.684 1.015 8.413.354.91.795 1.773 1.325 2.547 1.854 2.592 4.062 2.546 5.916-.091 1.899-2.729 2.428-5.821 2.384-9.096 0-.682-.132-1.364-.176-2.046-1.016.727-2.12 1.364-3.312 1.819-1.192 1.182-2.384.636-3.532-.046-1.015-.591-2.428-.41-3.09-1.728-.177-.455-.353.136-.53.227Z" fill="#565E63"/><path d="M31.92 48.98c1.193-.455 2.252-1.091 3.312-1.82.574-1-.088-2.41 1.015-3.228.089-1.637-1.148-1.046-1.942-1.228.044 1.546-.133 3.002-1.546 3.957-.485.318-1.192.318-1.5.955 0 .545.176 1 .662 1.364Zm-7.196-1.5c.22-.092.353-.683.53-.32.662 1.32 2.075 1.183 3.09 1.73-.132-.365.044-.683.221-1.001-1.898-1.183-3.135-2.775-3.002-5.185-.883.091-2.12-.364-1.898 1.364 1.147.182.485 1.046.573 1.592.133.591.31 1.183.486 1.82Z" fill="#C1C1C1"/><path d="M37.572 33.518c.839.09 1.545 0 2.119-.91.53-.864 1.678-1.046 2.472-1.819 1.192-1.091 1.59-2.547 2.517-3.684.839-1.046.883-2.546 1.06-3.82.53-3.501-.133-7.049-1.413-10.232-.442-1.092-.927-2.592-2.34-3.502-.84-.546-1.678-1.728-2.782-2.228-2.119-1-4.106-2.183-6.534-2.547a20.08 20.08 0 0 0-6.402.09c-1.148.228-2.693.228-3.576 1.41-.486.683-1.192.5-1.81.728-1.722.592-2.914 2.001-3.885 3.23-1.192 1.5-2.031 3.456-2.429 5.502-.264 1.455-.441 2.956-.75 4.411-.22 1.137.22 2.456.353 3.684.133 1.91.927 3.911 2.031 5.276.883 1.091 1.678 2.546 3.311 3.183 1.104.455 2.12 1.41 3.4 1.637-.574-1.41-1.104-2.91-2.34-3.774-1.678-1.183-2.737-3.411-2.252-5.367.133-.546.486-1.319 1.06-1 .927.5.883 0 .883-.637.044-2.137 1.148-3.593 2.781-4.775 1.413-1.046 3.047-1.637 4.769-1.865 3.752-.455 7.284.046 9.933 3.23 1.104 1.318 1.236 3.092 1.722 4.683 1.28-1 1.457-.955 1.899.046.662 1.5-.089 4.684-1.502 5.366-1.589.819-1.942 2.183-2.295 3.684Z" fill="#3A3C3F"/><path d="M37.572 33.517c.309-1.5.662-2.865 2.251-3.683 1.413-.683 2.164-3.911 1.502-5.367-.442-1.046-.619-1.046-1.899-.045-.53-1.592-.618-3.366-1.722-4.684-2.693-3.184-6.18-3.684-9.934-3.23-1.721.228-3.31.82-4.768 1.865-1.59 1.183-2.693 2.683-2.781 4.775 0 .637.044 1.137-.883.637-.574-.318-.927.455-1.06 1-.485 2.002.574 4.185 2.252 5.367 1.28.864 1.81 2.365 2.34 3.775.839 1.091 1.898 2.092 2.516 3.32.883 1.728.618 3.638.133 5.457-.133 2.41 1.104 4.002 3.002 5.184.839-.59 1.766-.409 2.693-.318.31-.637 1.016-.591 1.501-.955 1.413-.955 1.634-2.41 1.545-3.957-1.412-4.002.84-6.594 3.312-9.14Z" fill="#565E63"/><path d="M31.258 47.615c-.927-.09-1.854-.227-2.693.319-.177.318-.353.591-.22 1 1.191.728 2.34 1.274 3.531.046-.441-.364-.618-.819-.618-1.364Z" fill="#7F817B"/></g><circle cx="52.4" cy="52.4" r="6.85" fill="#8C8C8C" stroke="#C4C4C4" stroke-width="1.5"/><defs><clipPath id="a"><path fill="#fff" transform="matrix(-1 0 0 1 60 0)" d="M0 0h60v60.304H0z"/></clipPath></defs></svg>